<?xml version="1.0" standalone="no"?>
<!DOCTYPE svg PUBLIC "-//W3C//DTD SVG 1.1//EN" "http://www.w3.org/Graphics/SVG/1.1/DTD/svg11.dtd" >
<svg xmlns="http://www.w3.org/2000/svg">
<metadata>Generated by IcoMoon</metadata>
<defs>
<font id="icomoon" horiz-adv-x="1024">
<font-face units-per-em="1024" ascent="960" descent="-64" />
<missing-glyph horiz-adv-x="1024" />
<glyph unicode="&#x20;" horiz-adv-x="512" d="" />
<glyph unicode="&#xe900;" glyph-name="user" d="M576.41 417.574c61.075 0 116.444-25.286 156.545-66.118 40.086-40.817 64.912-97.168 64.912-159.297 0-16.303-4.197-29.337-11.762-39.8-8.080-11.177-20.071-19.45-35.251-25.467-36.104-14.31-90.698-15.789-151.368-15.939h-175.815c-61.947 0.149-115.57 1.565-150.825 13.188-15.105 4.98-26.924 11.849-34.877 21.067-7.648 8.864-11.835 19.909-11.835 33.731 0 67.993 24.278 127.033 63.509 169.367 40.218 43.399 96.164 69.269 157.949 69.269h128.819zM576.41 371.009l-128.817-0.076c-49.397 0-94.1-20.937-125.602-57.229-29.908-34.456-47.895-82.701-46.917-139.939 3.671-2.474 11.405-6.118 26.648-9.217 32.939-6.688 81.89-7.096 134.535-7.12l152.11 0.001c51.234 0.034 98.922 0.476 132.289 7.197 9.343 1.896 16.020 3.87 21.015 8.428 4.467 4.076 7.505 10.167 10.242 19.627-0.157 49.116-19.81 93.63-51.481 125.904-31.767 32.37-75.628 52.425-124.023 52.425zM505.566 813.511c48.589 0 92.673-20.152 124.606-52.699 31.9-32.513 51.669-77.395 51.669-126.883 0-49.486-19.77-94.369-51.67-126.882-31.933-32.547-76.017-52.7-124.605-52.7-48.617 0-92.692 20.145-124.613 52.68-31.901 32.515-51.659 77.406-51.659 126.902 0 49.488 19.768 94.37 51.668 126.883 31.932 32.546 76.015 52.698 124.604 52.698zM505.566 766.943c-35.942 0-68.531-14.916-92.127-38.984-23.619-24.091-38.231-57.35-38.196-94.025 0-36.69 14.62-69.958 38.241-94.051 23.586-24.057 56.15-38.966 92.082-38.966 35.906 0 68.477 14.917 92.072 38.984 23.62 24.092 38.25 57.352 38.25 94.029 0 36.686-14.619 69.954-38.24 94.047-23.586 24.057-56.149 38.966-92.082 38.966z" />
<glyph unicode="&#xe901;" glyph-name="cart" d="M900.594 608.727c3.745 17.715-0.618 35.96-12.032 50.064-11.331 14.033-28.407 22.182-46.45 22.166h-506.492l-8.111 68.086-0.265 1.808c-6.435 33.845-36.094 58.394-70.511 58.394h-105.198c-14.583 0-26.44-11.856-26.44-26.44 0-14.588 11.857-26.444 26.44-26.444h105.198c8.813 0 16.437-6.124 18.421-14.677l51.783-434.838 0.265-1.808c1.365-7.271 3.874-14.058 7.225-20.317-34.46-14.982-58.655-49.358-58.655-89.285 0-53.675 43.672-97.304 97.304-97.304 53.637 0 97.309 43.671 97.309 97.304 0 18.774-5.375 36.317-14.588 51.212h255.079c-9.254-14.895-14.587-32.438-14.587-51.212 0-53.675 43.672-97.304 97.308-97.304 53.633 0 97.305 43.671 97.305 97.304 0 41.028-25.516 76.155-61.475 90.479 2.858 5.556 4.963 11.469 6.254 17.581l64.916 305.231zM842.158 628.072c2.732 0 4.409-1.412 5.375-2.555 0.924-1.147 1.942-3.131 1.366-5.774l-64.825-305.273c-1.88-8.709-9.557-14.937-18.468-14.983h-367.895c-8.805 0.022-16.437 6.098-18.421 14.677l-37.372 313.909h500.239zM373.121 150.971c-24.502 0-44.424 19.922-44.424 44.424s19.922 44.424 44.424 44.424c24.503 0 44.424-19.922 44.424-44.424s-19.921-44.424-44.424-44.424zM793.682 150.971c-24.506 0-44.424 19.922-44.424 44.424s19.918 44.424 44.424 44.424c24.503 0 44.42-19.922 44.42-44.424s-19.916-44.424-44.42-44.424z" />
<glyph unicode="&#xe902;" glyph-name="help" d="M511.971 817.778c204.238 0 369.807-165.555 369.807-369.78 0-204.22-165.569-369.775-369.807-369.775-204.243 0-369.813 165.555-369.813 369.775 0 204.225 165.569 369.78 369.813 369.78zM511.971 762.997c-173.984 0-315.027-141.030-315.027-315 0-173.964 141.043-314.994 315.027-314.994 173.979 0 315.022 141.030 315.022 314.994 0 173.969-141.043 315-315.022 315zM540.678 348.434v10.555c0 14.899 3.087 28.557 9.871 40.973 5.55 11.173 14.183 22.347 25.903 32.283 28.986 25.45 46.256 41.592 51.806 48.421 15.417 19.867 23.436 45.321 23.436 75.74 0 37.248-12.335 67.046-37.004 88.775-24.669 22.352-56.741 32.903-96.213 32.903-45.641 0-81.412-13.035-107.318-39.732-25.903-26.073-38.852-61.459-38.852-106.777h64.759c0 27.316 5.551 48.421 16.651 63.32 12.335 18.002 32.688 26.697 60.443 26.697 22.202 0 40.087-6.21 52.421-18.626 11.72-12.415 17.89-29.176 17.89-50.904 0-16.142-6.17-31.042-17.27-45.318l-10.486-11.796c-38.238-34.145-61.678-59.599-69.691-76.983-8.638-16.142-12.339-36.005-12.339-58.976v-10.555h65.994zM507.376 226.133c12.334 0 23.435 4.35 32.068 12.421 8.637 8.689 13.569 19.244 13.569 32.279 0 13.039-4.317 23.594-12.95 31.66-8.638 8.695-19.738 12.421-32.687 12.421-12.339 0-23.44-3.726-32.073-12.421-8.632-8.066-12.953-18.621-12.953-31.66 0-12.415 4.32-22.97 12.953-31.66s19.734-13.039 32.073-13.039z" />
<glyph unicode="&#xe903;" d="M1024 448c0-282.77-229.23-512-512-512s-512 229.23-512 512c0 282.77 229.23 512 512 512s512-229.23 512-512z" />
<glyph unicode="&#xe904;" d="M547.389 447.952l161.998 162.018c9.802 9.81 9.802 25.65 0 35.412-4.679 4.71-11.042 7.357-17.676 7.357-6.636 0-12.999-2.648-17.677-7.357l-162.047-162.016-162.070 162.088c-4.678 4.701-11.035 7.345-17.665 7.345s-12.986-2.644-17.665-7.345c-9.8-9.81-9.8-25.65 0-35.39l161.998-162.016-161.998-162.088c-7.198-7.137-9.365-17.925-5.483-27.293 3.88-9.368 13.040-15.452 23.172-15.394 6.407 0 12.765 2.392 17.665 7.298l162.046 162.041 162.070-162.088c4.877-4.905 11.236-7.323 17.643-7.323 10.14-0.067 19.315 6.021 23.199 15.399s1.705 20.178-5.511 27.314l-161.998 162.039z" />
<glyph unicode="&#xe905;" glyph-name="form-search" horiz-adv-x="996" d="M772.848 218.604l-105.82 105.923c40.667 47.095 62.956 106.575 62.956 169.394 0 69.259-26.925 134.359-75.809 183.247-48.884 48.886-113.873 76.020-182.93 76.020-69.136 0-134.126-26.971-182.927-75.939-48.884-48.969-75.808-114.068-75.808-183.244 0-69.259 26.924-134.359 75.808-183.247 48.884-48.969 113.871-75.94 182.927-75.94 57.102 0 111.352 18.416 156.090 52.394l107.039-107.227c5.289-5.296 12.284-7.985 19.278-7.985s13.909 2.689 19.279 7.985c10.573 10.675 10.573 27.947-0.083 38.62zM266.926 494.004c0 112.846 91.668 204.592 204.239 204.592 112.654 0 204.239-91.826 204.239-204.592 0.083-112.849-91.506-204.676-204.16-204.676-112.65 0-204.319 91.826-204.319 204.676z" />
<glyph unicode="&#xe906;" glyph-name="star-lightup" d="M575.84 867.386l87.318-184.47c10.38-21.867 30.398-37.066 53.566-40.567l195.081-29.522c58.388-8.854 81.656-83.649 39.41-126.622l-141.199-143.568c-16.772-17.062-24.42-41.664-20.438-65.716l33.333-202.727c9.958-60.686-51.050-106.94-103.25-78.296l-174.533 95.682c-20.738 11.368-45.511 11.368-66.25 0l-174.533-95.682c-52.205-28.645-113.214 17.61-103.254 78.296l33.333 202.727c3.986 24.052-3.666 48.654-20.438 65.716l-141.2 143.459c-42.246 42.973-18.972 117.768 39.416 126.622l195.075 29.522c23.169 3.501 43.192 18.7 53.566 40.567l87.425 184.579c26.105 55.219 101.474 55.219 127.575 0z" />
<glyph unicode="&#xe907;" glyph-name="star-lightdown" d="M575.84 867.386l87.318-184.47c10.38-21.867 30.398-37.066 53.566-40.567l195.081-29.522c58.388-8.854 81.656-83.649 39.41-126.622l-141.199-143.568c-16.772-17.062-24.42-41.664-20.438-65.716l33.333-202.727c9.958-60.686-51.050-106.94-103.25-78.296l-174.533 95.682c-20.738 11.368-45.511 11.368-66.25 0l-174.533-95.682c-52.205-28.645-113.214 17.61-103.254 78.296l33.333 202.727c3.986 24.052-3.666 48.654-20.438 65.716l-141.2 143.459c-42.246 42.973-18.972 117.768 39.416 126.622l195.075 29.522c23.169 3.501 43.192 18.7 53.566 40.567l87.425 184.579c26.105 55.219 101.474 55.219 127.575 0z" />
<glyph unicode="&#xe913;" glyph-name="stars" horiz-adv-x="5120" d="M1024 960v-1024h-1024v1024zM575.839 867.386c-26.1 55.219-101.469 55.219-127.575 0l-87.425-184.579c-10.373-21.867-30.396-37.066-53.566-40.567l-195.075-29.522c-58.388-8.854-81.662-83.649-39.416-126.622l141.2-143.459c16.772-17.062 24.424-41.664 20.438-65.716l-33.333-202.727c-9.96-60.686 51.050-106.94 103.254-78.296l174.533 95.682c20.739 11.368 45.513 11.368 66.25 0l174.533-95.682c52.201-28.644 113.209 17.61 103.25 78.296l-33.333 202.727c-3.982 24.052 3.666 48.654 20.438 65.716l141.199 143.568c42.246 42.973 18.978 117.768-39.41 126.622l-195.081 29.522c-23.168 3.501-43.186 18.7-53.566 40.567zM3071.999 960v-1024h-1024v1024zM2623.838 867.386c-26.1 55.219-101.469 55.219-127.575 0l-87.425-184.579c-10.373-21.867-30.396-37.066-53.566-40.567l-195.075-29.522c-58.388-8.854-81.662-83.649-39.416-126.622l141.2-143.459c16.772-17.062 24.424-41.664 20.438-65.716l-33.333-202.727c-9.96-60.686 51.050-106.94 103.254-78.296l174.533 95.682c20.739 11.368 45.513 11.368 66.25 0l174.533-95.682c52.201-28.644 113.209 17.61 103.25 78.296l-33.333 202.727c-3.982 24.052 3.666 48.654 20.438 65.716l141.199 143.568c42.246 42.973 18.978 117.768-39.41 126.622l-195.081 29.522c-23.168 3.501-43.186 18.7-53.566 40.567zM4095.998 960v-1024h-1024v1024zM3647.838 867.386c-26.1 55.219-101.469 55.219-127.575 0l-87.425-184.579c-10.373-21.867-30.396-37.066-53.566-40.567l-195.075-29.522c-58.388-8.854-81.662-83.649-39.416-126.622l141.2-143.459c16.772-17.062 24.424-41.664 20.438-65.716l-33.333-202.727c-9.96-60.686 51.050-106.94 103.254-78.296l174.533 95.682c20.739 11.368 45.513 11.368 66.25 0l174.533-95.682c52.201-28.644 113.209 17.61 103.25 78.296l-33.333 202.727c-3.982 24.052 3.666 48.654 20.438 65.716l141.199 143.568c42.246 42.973 18.978 117.768-39.41 126.622l-195.081 29.522c-23.168 3.501-43.186 18.7-53.566 40.567zM5119.998 960v-1024h-1024v1024zM4671.838 867.386c-26.1 55.219-101.469 55.219-127.575 0l-87.425-184.579c-10.373-21.867-30.396-37.066-53.566-40.567l-195.075-29.522c-58.388-8.854-81.662-83.649-39.416-126.622l141.2-143.459c16.772-17.062 24.424-41.664 20.438-65.716l-33.333-202.727c-9.96-60.686 51.050-106.94 103.254-78.296l174.533 95.682c20.739 11.368 45.513 11.368 66.25 0l174.533-95.682c52.201-28.644 113.209 17.61 103.25 78.296l-33.333 202.727c-3.982 24.052 3.666 48.654 20.438 65.716l141.199 143.568c42.246 42.973 18.978 117.768-39.41 126.622l-195.081 29.522c-23.168 3.501-43.186 18.7-53.566 40.567zM2047.998 960v-1024h-1024v1024zM1599.838 867.386c-26.1 55.219-101.469 55.219-127.575 0l-87.425-184.579c-10.373-21.867-30.396-37.066-53.566-40.567l-195.075-29.522c-58.388-8.854-81.662-83.649-39.416-126.622l141.2-143.459c16.772-17.062 24.424-41.664 20.438-65.716l-33.333-202.727c-9.96-60.686 51.050-106.94 103.254-78.296l174.533 95.682c20.739 11.368 45.513 11.368 66.25 0l174.533-95.682c52.201-28.644 113.209 17.61 103.25 78.296l-33.333 202.727c-3.982 24.052 3.666 48.654 20.438 65.716l141.199 143.568c42.246 42.973 18.978 117.768-39.41 126.622l-195.081 29.522c-23.168 3.501-43.186 18.7-53.566 40.567z" />
<glyph unicode="&#xe914;" d="M1006.933 448c0-273.344-221.589-494.933-494.933-494.933s-494.933 221.589-494.933 494.933c0 273.344 221.589 494.933 494.933 494.933s494.933-221.589 494.933-494.933z" />
<glyph unicode="&#xe915;" glyph-name="category" d="M233.798 690.991h564.966c14.626 0 26.483-11.857 26.483-26.483s-11.857-26.483-26.483-26.483h-564.966c-14.626 0-26.483 11.857-26.483 26.483s11.857 26.483 26.483 26.483zM233.798 479.129h564.966c14.626 0 26.483-11.857 26.483-26.483s-11.857-26.483-26.483-26.483h-564.966c-14.626 0-26.483 11.857-26.483 26.483s11.857 26.483 26.483 26.483zM237.515 267.267h557.532c16.679 0 30.2-13.521 30.2-30.2v0c0-16.679-13.521-30.2-30.2-30.2h-557.532c-16.679 0-30.2 13.521-30.2 30.2v0c0 16.679 13.521 30.2 30.2 30.2z" />
<glyph unicode="&#xe916;" glyph-name="quit" d="M814.942 215.903l-231.982 232.072 232.049 232.072c19.669 19.666 19.734 51.377 0.067 71.047-19.597 19.599-51.438 19.599-70.974 0l-232.117-232.072-232.116 232.072c-19.531 19.599-51.304 19.599-70.968 0-19.536-19.604-19.536-51.448 0.133-71.113l231.982-232.007-232.049-232.005c-19.669-19.599-19.669-51.377-0.067-71.047 9.83-9.903 22.807-14.715 35.521-14.715 12.707 0 25.686 4.812 35.448 14.648l232.116 232.072 232.117-232.072c9.834-9.764 22.679-14.648 35.453-14.648 12.845 0 25.686 4.812 35.454 14.648 19.597 19.736 19.669 51.448-0.067 71.047z" />
<glyph unicode="&#xe917;" glyph-name="search" d="M834.477 166.351l-121.511 122.272c46.697 54.364 72.291 123.025 72.291 195.54 0 79.95-30.917 155.097-87.049 211.532-56.132 56.432-130.758 87.753-210.054 87.753-79.388 0-154.013-31.133-210.051-87.661-56.132-56.527-87.049-131.675-87.049-211.528 0-79.95 30.916-155.097 87.049-211.532 56.132-56.527 130.755-87.662 210.051-87.662 65.569 0 127.863 21.259 179.234 60.481l122.91-123.778c6.073-6.113 14.105-9.218 22.136-9.218s15.972 3.104 22.137 9.218c12.14 12.322 12.14 32.26-0.095 44.581zM253.539 484.26c0 130.264 105.261 236.171 234.523 236.171 129.358 0 234.523-106 234.523-236.171 0.095-130.268-105.074-236.268-234.432-236.268-129.354 0-234.614 106-234.614 236.268z" />
<glyph unicode="&#xe91b;" glyph-name="subscribe" d="M570.219 106.221c10.184 0 19.648-5.253 24.754-13.904 2.5-4.231 3.755-8.952 3.755-13.675s-1.255-9.444-3.757-13.678c-5.103-8.642-14.568-13.894-24.752-13.894h-117.989c-7.907 0-15.078 3.111-20.264 8.18-5.079 4.963-8.246 11.813-8.246 19.394 0 7.583 3.168 14.434 8.246 19.398 5.186 5.069 12.357 8.18 20.264 8.18zM511.221 870.269c9.787 0 19.188-3.776 26.111-10.542 6.81-6.659 10.669-15.682 10.669-25.106v-23.859c67.41-9.294 125.702-42.695 166.453-90.418 38.528-45.119 61.371-103.043 61.368-165.439v-229.453l73.497-101.069c3.034-4.178 4.756-9.006 5.11-13.932 0.353-4.915-0.657-9.923-3.058-14.464-2.434-4.601-6.089-8.336-10.45-10.929-4.426-2.632-9.58-4.090-14.955-4.090h-629.482c-5.375 0-10.529 1.458-14.954 4.090-4.361 2.593-8.016 6.328-10.449 10.929-2.402 4.542-3.412 9.549-3.060 14.464 0.353 4.927 2.075 9.757 5.101 13.926l73.507 101.075v229.454c-0.003 62.396 22.84 120.319 61.368 165.438 40.751 47.722 99.043 81.124 166.453 90.418v23.859c0 9.811 4.092 18.679 10.666 25.104 6.681 6.53 15.918 10.544 26.107 10.544zM511.225 758.055c-57.287 0-109.136-22.714-146.671-59.398-37.643-36.789-60.9-87.621-60.9-143.752v-225.989c0-13.601-4.32-26.838-12.4-37.876l-39.827-54.922h519.628l-39.885 54.886c-8.074 11.081-12.418 24.327-12.427 37.92v225.981c0 56.121-23.249 106.946-60.882 143.734-37.525 36.683-89.361 59.401-146.636 59.415z" />
<glyph unicode="&#xe91c;" d="M1024 448c0-282.77-229.23-512-512-512s-512 229.23-512 512c0 282.77 229.23 512 512 512s512-229.23 512-512z" />
<glyph unicode="&#xe91d;" d="M411.799 447.804l191.749-187.442c7.436-7.281 7.436-19.071 0-26.33-7.438-7.28-19.5-7.28-26.948 0l-205.307 200.686c-7.438 7.271-7.438 19.064 0 26.343 0.51 0.501 1.056 0.972 1.613 1.399l204.089 199.517c7.446 7.271 19.51 7.271 26.961 0 7.423-7.278 7.423-19.072 0-26.343l-192.157-187.829z" />
<glyph unicode="&#xe91e;" d="M0 448c0-282.77 229.23-512 512-512s512 229.23 512 512c0 282.77-229.23 512-512 512s-512-229.23-512-512z" />
<glyph unicode="&#xe91f;" d="M612.201 447.804l-191.749-187.442c-7.436-7.281-7.436-19.071 0-26.33 7.438-7.28 19.5-7.28 26.948 0l205.307 200.686c7.438 7.271 7.438 19.064 0 26.343-0.51 0.501-1.056 0.972-1.613 1.399l-204.089 199.517c-7.446 7.271-19.51 7.271-26.961 0-7.423-7.278-7.423-19.072 0-26.343l192.157-187.829z" />
<glyph unicode="&#xe920;" d="M1024 448c0-282.77-229.23-512-512-512s-512 229.23-512 512c0 282.77 229.23 512 512 512s512-229.23 512-512z" />
<glyph unicode="&#xe921;" d="M411.799 447.804l191.749-187.442c7.436-7.281 7.436-19.071 0-26.33-7.438-7.28-19.5-7.28-26.948 0l-205.307 200.686c-7.438 7.271-7.438 19.064 0 26.343 0.51 0.501 1.056 0.972 1.613 1.399l204.089 199.517c7.446 7.271 19.51 7.271 26.961 0 7.423-7.278 7.423-19.072 0-26.343l-192.157-187.829z" />
<glyph unicode="&#xe922;" d="M0 448c0-282.77 229.23-512 512-512s512 229.23 512 512c0 282.77-229.23 512-512 512s-512-229.23-512-512z" />
<glyph unicode="&#xe923;" d="M612.201 447.804l-191.749-187.442c-7.436-7.281-7.436-19.071 0-26.33 7.438-7.28 19.5-7.28 26.948 0l205.307 200.686c7.438 7.271 7.438 19.064 0 26.343-0.51 0.501-1.056 0.972-1.613 1.399l-204.089 199.517c-7.446 7.271-19.51 7.271-26.961 0-7.423-7.278-7.423-19.072 0-26.343l192.157-187.829z" />
<glyph unicode="&#xe925;" glyph-name="reset" d="M523.842 704.78c-62.433 0-122.371-24.975-167.321-64.936l-4.996 39.961c0 14.985-12.487 24.975-27.471 22.477-14.985 0-24.973-12.488-22.475-27.473l4.993-67.434c2.498-32.467 29.969-57.442 62.436-57.442h4.993l67.429 4.993c14.985 0 24.973 12.487 22.478 27.473 0 14.985-12.486 24.975-27.471 22.477l-49.949-2.496c37.462 32.467 84.91 52.449 134.857 52.449 109.884 0 199.788-89.914 199.788-199.804 0-109.893-89.903-199.805-199.788-199.805-109.882 0-199.788 89.911-199.788 199.805 0 14.985-9.989 24.975-24.973 24.975s-24.973-9.989-24.973-24.975c0-137.367 112.382-249.758 249.734-249.758 137.355 0 249.737 112.391 249.737 249.758 2.495 137.363-109.884 249.755-247.239 249.755z" />
<glyph unicode="&#xe926;" glyph-name="filter" d="M176.552 749.903c0.013 7.080 2.239 13.976 6.372 19.726 1.504 2.015 3.215 3.871 5.1 5.535l0.403 0.336c0.739 0.604 1.542 1.242 2.38 1.811l-2.85-2.147c6.104 5.291 13.894 8.231 21.971 8.285h603.974c5.301 0 10.301-1.242 14.761-3.423l0.435-0.198c2.492-1.27 4.815-2.847 6.913-4.696l0.468-0.438c0.707-0.637 1.41-1.309 2.047-2.012l-2.515 2.482c6.13-5.4 10.096-12.835 11.168-20.932 0.186-1.436 0.269-2.882 0.269-4.328l-0.067-2.348-0.099-1.005 0.167 3.353c-0.016-7.691-2.652-15.144-7.48-21.133l-0.17-0.201-0.668-0.771-226.496-258.832v-223.645l-0.134-1.507 0.134 2.918c-0.019-7.518-2.546-14.812-7.178-20.731-1.676-2.115-3.558-4.028-5.637-5.637l-0.601-0.47-134.851-101.136c-0.771-0.537-1.545-1.008-2.349-1.51l3.020 2.012c-5.615-4.191-12.39-6.535-19.39-6.708h-0.739l-1.846 0.032-1.309 0.102 3.155-0.134c-2.012 0-4.024 0.166-5.969 0.537l-1.008 0.198c-2.578 0.518-5.083 1.363-7.448 2.518-4.894 2.339-9.152 5.826-12.412 10.164l-0.636 0.873c-0.522 0.752-1.014 1.522-1.475 2.313l2.111-3.186c-4.261 5.716-6.606 12.629-6.708 19.758v323.207l-226.828 259.2c-0.665 0.797-1.292 1.625-1.881 2.482l2.182-2.818c-1.833 2.101-3.397 4.424-4.664 6.91l-0.198 0.439c-2.259 4.59-3.423 9.642-3.423 14.757zM478.456 481.544v-268.323l67.088 50.315v218.008l0.035 1.478c0 0.668 0.067 1.273 0.134 1.91l-0.17-3.388c0.016 6.367 1.83 12.601 5.233 17.982l2.147 3.017 0.102 0.134 0.166 0.201 0.672 0.771 186.040 212.707h-455.877l186.443-213.043c0.672-0.803 1.276-1.64 1.878-2.482l-2.179 2.819c1.834-2.102 3.398-4.425 4.662-6.91l0.201-0.435c2.255-4.594 3.427-9.643 3.423-14.761z" />
<glyph unicode="&#xe928;" glyph-name="verified" horiz-adv-x="975" d="M487.581 959.872c-269.322 0-487.652-218.314-487.652-487.617 0-269.307 218.33-487.621 487.652-487.621 269.327 0 487.657 218.314 487.657 487.621 0 269.302-218.33 487.617-487.657 487.617zM767.289 598.736l-315.398-315.38c-14.543-14.542-36.714-16.812-53.639-6.818-3.135 1.856-6.088 4.13-8.781 6.818-0.005 0.005-0.005 0.005-0.005 0.005l-181.589 181.574c-17.235 17.235-17.235 45.181 0 62.42 17.237 17.235 45.183 17.235 62.42 0l150.386-150.374 284.186 284.17c17.241 17.235 45.188 17.235 62.424 0 17.231-17.235 17.231-45.18-0.005-62.415z" />
<glyph unicode="&#xe92a;" d="M547.389 447.952l161.998 162.018c9.802 9.81 9.802 25.65 0 35.412-4.679 4.71-11.042 7.357-17.676 7.357-6.636 0-12.999-2.648-17.677-7.357l-162.047-162.016-162.070 162.088c-4.678 4.701-11.035 7.345-17.665 7.345s-12.986-2.644-17.665-7.345c-9.8-9.81-9.8-25.65 0-35.39l161.998-162.016-161.998-162.088c-7.198-7.137-9.365-17.925-5.483-27.293 3.88-9.368 13.040-15.452 23.172-15.394 6.407 0 12.765 2.392 17.665 7.298l162.046 162.041 162.070-162.088c4.877-4.905 11.236-7.323 17.643-7.323 10.14-0.067 19.315 6.021 23.199 15.399s1.705 20.178-5.511 27.314l-161.998 162.039z" />
<glyph unicode="&#xe92b;" horiz-adv-x="1005" d="M148.945 941.382h707.491c82.26 0 148.945-66.685 148.945-148.945v-707.491c0-82.26-66.685-148.945-148.945-148.945h-707.491c-82.26 0-148.945 66.685-148.945 148.945v707.491c0 82.26 66.685 148.945 148.945 148.945z" />
<glyph unicode="&#xe92c;" horiz-adv-x="1005" d="M533.925 592.032l29.988-63.353c3.565-7.51 10.44-12.73 18.396-13.932l66.998-10.139c20.052-3.041 28.043-28.728 13.535-43.486l-48.493-49.306c-5.76-5.86-8.387-14.309-7.019-22.569l11.448-69.624c3.42-20.842-17.532-36.727-35.46-26.889l-59.941 32.86c-7.122 3.904-15.63 3.904-22.753 0l-59.941-32.86c-17.929-9.838-38.882 6.048-35.461 26.889l11.448 69.624c1.369 8.26-1.259 16.709-7.019 22.569l-48.493 49.269c-14.509 14.758-6.516 40.445 13.537 43.486l66.995 10.139c7.957 1.202 14.834 6.422 18.396 13.932l30.025 63.391c8.966 18.964 34.85 18.964 43.814 0z" />
<glyph unicode="&#xe92d;" glyph-name="close" horiz-adv-x="975" d="M521.323 472.335l154.284 154.303c9.335 9.343 9.335 24.429 0 33.726-4.456 4.485-10.516 7.007-16.834 7.007-6.32 0-12.38-2.521-16.835-7.007l-154.331-154.301-154.353 154.37c-4.456 4.477-10.51 6.995-16.824 6.995s-12.368-2.518-16.824-6.995c-9.333-9.343-9.333-24.429 0-33.705l154.284-154.301-154.284-154.37c-6.855-6.798-8.919-17.072-5.221-25.994 3.696-8.922 12.419-14.716 22.069-14.661 6.101 0 12.157 2.279 16.824 6.95l154.329 154.325 154.352-154.37c4.645-4.671 10.701-6.974 16.802-6.974 9.657-0.064 18.395 5.734 22.094 14.666s1.624 19.217-5.249 26.013l-154.284 154.323z" />
<glyph unicode="&#xe930;" glyph-name="favorite" horiz-adv-x="1045" d="M639.504 746.667c123.808 0 203.162-101.016 203.162-236.968 0-105.503-93.827-221.693-278.683-352.25-24.854-17.513-57.781-17.513-82.639 0-184.856 130.557-278.679 246.747-278.679 352.25 0 135.953 79.351 236.968 203.159 236.968 44.714 0 75.040-15.896 116.839-51.965 41.811 36.058 72.129 51.965 116.839 51.965zM639.504 698.48c-31.077 0-52.694-11.593-87.718-42.005-1.623-1.409-10.8-9.443-13.455-11.738-9.042-7.788-22.287-7.788-31.329 0-2.655 2.303-11.832 10.329-13.455 11.738-35.024 30.412-56.642 42.005-87.722 42.005-94.519 0-155.16-76.908-155.16-187.896 0-84.632 85.145-189.669 258.226-311.452 8.29-5.82 19.255-5.82 27.549 0 173.079 121.775 258.223 226.82 258.223 311.452 0 110.988-60.637 187.896-155.16 187.896z" />
<glyph unicode="&#xe931;" glyph-name="prev-page" d="M660.197 147.172c-8.077 0-16.141 2.921-22.303 8.718l-282.689 266.211c-7.302 6.744-10.893 14.712-11.356 22.373-0.499 8.274 2.618 16.306 9.084 22.395l284.413 267.806c6.162 5.802 14.227 8.726 22.302 8.726s16.139-2.926 22.289-8.724c6.282-5.908 9.394-13.667 9.394-21.416 0-7.744-3.109-15.509-9.391-21.435l-261.537-246.277 262.106-246.797c6.269-5.915 9.374-13.677 9.374-21.425s-3.104-15.511-9.381-21.439c-6.163-5.794-14.229-8.714-22.305-8.714z" />
<glyph unicode="&#xe932;" glyph-name="dash" horiz-adv-x="1067" d="M118.382 740.874h829.908c26.77 0 40.154-13.382 40.154-40.154 0-26.77-13.384-40.158-40.154-40.158h-829.908c-26.772 0-40.16 13.388-40.16 40.158 0 26.772 13.388 40.154 40.16 40.154zM426.783 556.689c26.77 0 40.16-13.382 40.16-40.154v-240.943c0-26.772-13.39-40.16-40.16-40.16s-40.154 13.388-40.154 40.16v240.943c0 26.772 13.384 40.154 40.154 40.154zM640.955 556.689c26.772 0 40.154-13.382 40.154-40.154v-240.943c0-26.772-13.382-40.16-40.154-40.16-26.77 0-40.158 13.388-40.158 40.16v240.943c0 26.772 13.388 40.154 40.158 40.154zM827.818 608.625v-468.493c0-17.751-7.053-34.773-19.602-47.329-12.555-12.549-29.577-19.602-47.329-19.602h-455.111c-17.751 0-34.773 7.053-47.322 19.602-12.554 12.555-19.608 29.578-19.608 47.329v468.493c0 22.182-17.976 40.16-40.152 40.16-22.182 0-40.16-17.978-40.16-40.16v-481.881c0-73.928 59.933-133.854 133.861-133.854h481.881c73.928 0 133.854 59.926 133.854 133.854v481.881c0 22.182-17.978 40.16-40.158 40.16-22.176 0-40.154-17.978-40.154-40.16zM372.707 693.227v62.64c0 17.843 7.12 34.952 19.793 47.518 12.665 12.568 29.827 19.553 47.671 19.412h187.396c36.759-0.293 66.397-30.171 66.397-66.93v-62.64h80.312v76.030c0 73.928-59.933 133.854-133.861 133.854h-214.167c-35.503 0-69.547-14.107-94.651-39.205-25.104-25.103-39.203-59.153-39.203-94.65v-76.030h80.312z" />
<glyph unicode="&#xe933;" glyph-name="protect" d="M499.203 806.4c65.935 0 127.095-7.278 182-19.423 19.327-4.268 36.536-8.883 51.442-13.505 8.457-2.625 14.644-4.758 18.405-6.189 38.818-12.714 68.15-53.776 68.15-94.247v-334.979c0-37.761-22.847-83.104-53.489-105.364l-206.934-150.347c-33.628-24.435-85.458-24.49-119.154 0l-206.934 150.347c-30.508 22.171-53.489 67.735-53.489 105.364v334.979c0 40.739 29.248 81.97 68.324 94.311 3.782 1.431 9.913 3.546 18.231 6.125 16.939 5.204 34.1 9.707 51.443 13.505 54.905 12.158 116.064 19.423 182.005 19.423zM499.203 750.72c-61.324 0-118.121-6.758-168.892-17.994-17.658-3.9-33.261-8.076-46.614-12.222-4.599-1.418-8.563-2.735-11.869-3.9-1.874-0.645-3.045-1.083-3.493-1.261-0.742-0.285-1.497-0.544-2.26-0.769-14.613-4.379-28.693-24.035-28.693-41.537v-334.979c0-20.446 14.663-49.52 30.486-61.015l206.934-150.347c12.891-9.371 35.938-9.346 48.797 0l206.934 150.347c15.94 11.588 30.486 40.442 30.486 61.015v334.979c0 17.26-14.205 36.979-29.093 41.657l-1.859 0.649c-1.159 0.438-2.322 0.858-3.49 1.261-3.307 1.165-7.275 2.482-11.869 3.9-15.35 4.707-30.903 8.785-46.613 12.222-50.777 11.236-107.57 17.994-168.892 17.994zM624.069 584.792c11.356 10.884 29.773 10.897 41.144 0.030 11.368-10.867 11.382-28.496 0.027-39.375l-193.648-185.601c-11.342-10.871-29.741-10.897-41.114-0.055l-97.262 92.696c-7.461 7.001-10.427 17.294-7.768 26.962 2.655 9.669 10.53 17.235 20.624 19.817 10.093 2.578 20.858-0.216 28.2-7.328l76.674-73.071 173.122 165.924z" />
<glyph unicode="&#xe934;" d="M182.824 903.765h662.588c66.534 0 120.471-53.937 120.471-120.471v-662.588c0-66.534-53.937-120.471-120.471-120.471h-662.588c-66.534 0-120.471 53.937-120.471 120.471v662.588c0 66.534 53.937 120.471 120.471 120.471z" />
<glyph unicode="&#xe935;" d="M799.502 608.042l-298.672-301.177c-5.998-6.053-14.14-9.453-22.627-9.453-8.486 0-16.623 3.4-22.621 9.453l-149.334 150.589c-6.004 6.050-9.374 14.259-9.374 22.817 0 8.552 3.37 16.763 9.374 22.811 5.998 6.054 14.14 9.453 22.626 9.453 8.487 0 16.624-3.398 22.627-9.453l126.707-127.767 276.042 278.36c12.497 12.602 32.756 12.602 45.253 0s12.497-33.031 0-45.633z" />
<glyph unicode="&#xe936;" glyph-name="select-arrow" horiz-adv-x="983" d="M526.284 285.372l-329.899 331.343c-12.814 12.849-33.565 12.849-46.341 0-12.813-12.853-12.813-33.696 0-46.567l353.207-354.77c12.797-12.853 33.553-12.853 46.363 0 0.883 0.882 1.711 1.825 2.463 2.787l351.149 352.666c12.797 12.866 12.797 33.714 0 46.589-12.81 12.827-33.566 12.827-46.363 0l-330.579-332.048z" />
<glyph unicode="&#xe937;" glyph-name="modal-close" d="M582.778 447.904l323.997 324.036c19.604 19.619 19.604 51.3 0 70.825-9.358 9.42-22.083 14.715-35.351 14.715-13.272 0-25.998-5.295-35.354-14.715l-324.095-324.032-324.141 324.176c-9.357 9.403-22.071 14.69-35.33 14.69s-25.973-5.288-35.33-14.69c-19.6-19.619-19.6-51.3 0-70.781l323.997-324.032-323.997-324.176c-14.396-14.275-18.73-35.85-10.965-54.586 7.761-18.736 26.080-30.905 46.345-30.789 12.813 0 25.53 4.785 35.33 14.596l324.091 324.082 324.14-324.176c9.755-9.81 22.472-14.646 35.285-14.646 20.281-0.135 38.629 12.041 46.398 30.798s3.41 40.357-11.023 54.627l-323.997 324.079z" />
<glyph unicode="&#xe938;" glyph-name="modal-open" d="M338.997 37.994c11.7 0 23.381 4.313 32.308 12.872v0l374.086 359.056c10.47 9.855 15.557 21.517 16.22 32.7 0.725 12.244-3.797 24.13-13.185 33.14v0l-376.396 361.234c-8.927 8.566-20.609 12.883-32.306 12.883-11.701 0-23.381-4.32-32.288-12.879-9.096-8.718-13.604-20.168-13.604-31.603 0-11.427 4.502-22.883 13.598-31.627v0l343.293-329.48-344.049-330.184c-9.075-8.727-13.573-20.178-13.573-31.611 0-11.43 4.497-22.884 13.588-31.635 8.927-8.553 20.61-12.865 32.308-12.865z" />
<glyph unicode="&#xe939;" glyph-name="add-circle" d="M511.971 817.778c204.238 0 369.807-165.555 369.807-369.78 0-204.22-165.569-369.775-369.807-369.775-204.243 0-369.813 165.555-369.813 369.775 0 204.225 165.569 369.78 369.813 369.78zM511.971 762.997c-173.984 0-315.027-141.030-315.027-315 0-173.964 141.043-314.994 315.027-314.994 173.979 0 315.022 141.030 315.022 314.994 0 173.969-141.043 315-315.022 315zM341.333 476.444h341.333c15.709 0 28.444-12.735 28.444-28.444v0c0-15.709-12.735-28.444-28.444-28.444h-341.333c-15.709 0-28.444 12.735-28.444 28.444v0c0 15.709 12.735 28.444 28.444 28.444zM540.444 618.667v-341.333c0-15.709-12.735-28.444-28.444-28.444s-28.444 12.735-28.444 28.444v341.333c0 15.709 12.735 28.444 28.444 28.444s28.444-12.735 28.444-28.444z" />
<glyph unicode="&#xe93a;" glyph-name="add-to-cart" d="M900.594 608.727c3.745 17.715-0.618 35.96-12.032 50.064-11.331 14.033-28.407 22.182-46.45 22.166h-506.492l-8.111 68.086-0.265 1.808c-6.435 33.845-36.094 58.394-70.511 58.394h-105.198c-14.583 0-26.44-11.856-26.44-26.44 0-14.588 11.857-26.444 26.44-26.444h105.198c8.813 0 16.437-6.124 18.421-14.677l51.783-434.838 0.265-1.808c1.365-7.271 3.874-14.058 7.225-20.317-34.46-14.982-58.655-49.358-58.655-89.285 0-53.675 43.672-97.304 97.304-97.304 53.637 0 97.309 43.671 97.309 97.304 0 18.774-5.375 36.317-14.588 51.212h255.079c-9.254-14.895-14.587-32.438-14.587-51.212 0-53.675 43.672-97.304 97.308-97.304 53.633 0 97.305 43.671 97.305 97.304 0 41.028-25.516 76.155-61.475 90.479 2.858 5.556 4.963 11.469 6.254 17.581l64.916 305.231zM842.158 628.072c2.732 0 4.409-1.412 5.375-2.555 0.924-1.147 1.942-3.131 1.366-5.774l-64.825-305.273c-1.88-8.709-9.557-14.937-18.468-14.983h-367.895c-8.805 0.022-16.437 6.098-18.421 14.677l-37.372 313.909h500.239zM373.121 150.971c-24.502 0-44.424 19.922-44.424 44.424s19.922 44.424 44.424 44.424c24.503 0 44.424-19.922 44.424-44.424s-19.921-44.424-44.424-44.424zM793.682 150.971c-24.506 0-44.424 19.922-44.424 44.424s19.918 44.424 44.424 44.424c24.503 0 44.42-19.922 44.42-44.424s-19.916-44.424-44.42-44.424zM509.095 480.102h182.857c10.099 0 18.286-8.187 18.286-18.286v0c0-10.099-8.187-18.286-18.286-18.286h-182.857c-10.099 0-18.286 8.187-18.286 18.286v0c0 10.099 8.187 18.286 18.286 18.286zM618.809 553.244v-182.857c0-10.099-8.187-18.286-18.286-18.286s-18.286 8.187-18.286 18.286v182.857c0 10.099 8.187 18.286 18.286 18.286s18.286-8.187 18.286-18.286z" />
<glyph unicode="&#xe93b;" d="M512 928c265.097 0 480-214.903 480-480s-214.903-480-480-480c-265.097 0-480 214.903-480 480s214.903 480 480 480z" />
<glyph unicode="&#xe93c;" d="M815.22 613.795l-317.339-320.001c-6.373-6.431-15.023-10.043-24.041-10.043-9.016 0-17.662 3.612-24.035 10.043l-158.667 160.001c-6.379 6.428-9.96 15.15-9.96 24.243 0 9.087 3.581 17.81 9.96 24.237 6.373 6.433 15.023 10.043 24.040 10.043s17.663-3.611 24.041-10.043l134.626-135.752 293.294 295.758c13.278 13.389 34.803 13.389 48.081 0s13.278-35.096 0-48.485z" />
<glyph unicode="&#xe93d;" glyph-name="eye-opened" d="M512.001 100.571c-163.35 0-304.856 116.795-394.772 214.883-58.782 64.068-58.782 164.425 0 228.514 89.916 98.033 231.422 214.889 394.772 214.889 163.355 0 304.861-116.868 394.746-214.889 58.814-64.079 58.814-164.425 0-228.525-89.884-98.010-231.368-214.872-394.746-214.872zM512.001 692.841c-140.075 0-266.239-105.463-347.386-193.909-35.55-39.008-35.55-99.338 0-138.346 81.18-88.446 207.343-193.908 347.386-193.908 140.049 0 266.245 105.461 347.393 193.908 35.594 38.991 35.594 99.355 0 138.346-81.126 88.391-207.279 193.848-347.393 193.848v0.061zM511.997 246.857c-100.82 0-182.855 90.222-182.855 201.143 0 110.915 81.972 201.143 182.855 201.143 100.887 0 182.86-90.165 182.86-201.143s-82.034-201.143-182.86-201.143zM511.997 581.793c-49.204 0.006-93.569-32.598-112.396-82.602-18.832-50.010-8.426-107.573 26.37-145.844 34.795-38.269 87.124-49.717 132.584-28.995 45.458 20.716 75.097 69.518 75.086 123.649-0.072 73.87-54.485 133.748-121.644 133.838v-0.045z" />
<glyph unicode="&#xe93e;" glyph-name="eye-closed" d="M927.975 584.652c11.266 22.216 3.759 48.149-18.775 59.255-22.534 11.111-48.821 3.707-60.086-18.516-71.347-125.926-206.543-203.7-352.997-203.7s-281.643 77.775-352.997 203.7c-11.266 22.224-41.306 29.627-60.079 18.516-26.287-11.106-33.801-37.038-22.534-59.255 30.039-55.56 75.108-103.702 123.921-144.44l-30.040-29.635c-18.773-18.515-18.773-44.44 0-62.962 7.512-7.404 18.773-14.815 30.040-14.815 11.266 0 22.534 3.702 30.046 14.815l45.062 44.447c56.326-29.635 120.167-48.149 187.761-55.56v-48.142c0-25.926 18.78-44.447 45.067-44.447s45.060 18.522 45.060 44.447v48.142c67.602 7.411 131.435 25.926 187.77 55.56l45.060-44.447c7.514-7.404 18.78-14.815 30.048-14.815 11.259 0 22.526 3.702 30.039 14.815 18.775 18.522 18.775 44.447 0 62.962l-30.039 29.635c52.574 40.738 93.88 88.88 127.674 144.44z" />
<glyph unicode="&#xe93f;" glyph-name="facebook-circle" d="M1024.075 447.959c0 282.785-229.251 512.041-512.034 512.041-282.785 0-512.041-229.256-512.041-512.041 0-282.784 229.256-512.034 512.041-512.034 282.784 0 512.034 229.251 512.034 512.034zM374.534 447.959v97.986h60.049v59.258c0 79.927 23.878 137.505 111.39 137.505h104.080v-97.752h-73.267c-36.726 0-45.057-24.391-45.057-49.945v-49.066h112.928l-15.412-97.986h-97.516v-295.54h-97.146v295.54h-60.049z" />
<glyph unicode="&#xe940;" d="M511.966-64c-282.8 0-512.041 229.224-512.041 511.997 0 282.779 229.241 512.003 512.041 512.003 282.794 0 512.034-229.224 512.034-512.003 0-282.773-229.241-511.997-512.034-511.997z" />
<glyph unicode="&#xe941;" d="M511.966-64c-282.8 0-512.041 229.224-512.041 511.997 0 282.779 229.241 512.003 512.041 512.003 282.794 0 512.034-229.224 512.034-512.003 0-282.773-229.241-511.997-512.034-511.997z" />
<glyph unicode="&#xe942;" d="M316.127 447.954c0 21.892 3.74 42.893 10.355 62.569l-116.142 86.755c-23.333-46.321-35.453-97.469-35.378-149.324 0-53.659 12.712-104.277 35.322-149.205l116.083 86.896c-6.771 20.081-10.227 41.125-10.241 62.309z" />
<glyph unicode="&#xe943;" d="M520.107 647.121c48.606 0 92.525-16.836 127.040-44.412l100.408 98.044c-61.176 52.081-139.61 84.257-227.448 84.257-136.392 0-253.624-76.271-309.768-187.732l116.199-86.755c26.75 79.46 103.025 136.598 193.569 136.598z" />
<glyph unicode="&#xe944;" d="M520.023 249.396c-90.644 0-166.978 57.245-193.776 136.853l-116.232-86.917c56.158-111.67 173.484-188.083 310.008-188.083 84.22 0 164.645 29.271 225.032 84.154l-110.359 83.521c-31.113-19.195-70.319-29.527-114.704-29.527z" />
<glyph unicode="&#xe945;" d="M850.063 448.592c0 19.952-3.156 41.456-7.833 61.407h-320.941v-130.496h184.724c-9.213-44.506-34.357-78.707-70.321-100.962l110.012-83.542c63.232 57.635 104.359 143.48 104.359 253.593z" />
<glyph unicode="&#xe947;" glyph-name="wished" d="M628.838 746.667c123.808 0 203.162-101.016 203.162-236.968 0-105.503-93.827-221.693-278.683-352.25-24.854-17.513-57.781-17.513-82.639 0-184.856 130.557-278.679 246.747-278.679 352.25 0 135.953 79.351 236.968 203.159 236.968 44.714 0 75.040-15.896 116.839-51.965 41.811 36.058 72.129 51.965 116.839 51.965z" />
<glyph unicode="&#xe948;" d="M889.109 606.803c-20.367 48.647-50.377 92.207-87.75 130.103-37.424 37.214-81.592 66.967-130.147 87.657-50.287 21.401-104.394 32.366-159.044 32.239-54.899 0-108.664-11.322-159.586-32.805-48.694-20.37-92.274-50.334-130.194-87.66-37.241-37.393-67.017-81.541-87.726-130.080-21.413-50.244-32.386-104.316-32.263-158.931 0-54.875 10.757-108.597 32.282-158.927 20.348-48.647 50.358-92.207 87.707-130.103 37.432-37.218 81.608-66.967 130.17-87.66 50.287-21.397 104.394-32.363 159.045-32.236 54.899 0 108.663 10.753 159.040 32.236 48.651 20.37 92.254 50.333 130.17 87.66 37.245 37.4 67.017 81.556 87.73 130.103 21.405 50.236 32.382 104.301 32.259 158.908 0 54.875-10.752 108.597-31.692 159.496zM512.168 109.102c-186.775 0-339.021 152.132-339.021 338.77 0 186.642 152.246 338.794 339.021 338.794 186.779 0 339.024-152.128 339.024-338.794 0-186.638-152.245-338.77-339.024-338.77z" />
<glyph unicode="&#xe949;" d="M511.645 640.743c0.085 9.081-3.478 17.819-9.893 24.245-6.42 6.432-15.145 10.014-24.23 9.944-9.081 0.070-17.811-3.513-24.226-9.944-6.416-6.427-9.982-15.164-9.898-24.245v-227.149c-0.084-9.085 3.482-17.819 9.898-24.25 6.416-6.427 15.145-10.009 24.226-9.944 1.729 0 2.888 0 4.64 0.57 1.136 0 2.887-0.57 4.612-0.57h218.060c9.077-0.061 17.8 3.524 24.211 9.952 6.412 6.431 9.974 15.161 9.89 24.242 0.084 9.080-3.482 17.815-9.898 24.245-6.416 6.428-15.145 10.010-24.226 9.943h-192.597v192.961h-0.569z" />
<glyph unicode="&#xe94a;" d="M889.109 606.803c-20.367 48.647-50.377 92.207-87.75 130.103-37.424 37.214-81.592 66.967-130.147 87.657-50.287 21.401-104.394 32.366-159.044 32.239-54.899 0-108.664-11.322-159.586-32.805-48.694-20.37-92.274-50.334-130.194-87.66-37.241-37.393-67.017-81.541-87.726-130.080-21.413-50.244-32.386-104.316-32.263-158.931 0-54.875 10.757-108.597 32.282-158.927 20.348-48.647 50.358-92.207 87.707-130.103 37.432-37.218 81.608-66.967 130.17-87.66 50.287-21.397 104.394-32.363 159.045-32.236 54.899 0 108.663 10.753 159.040 32.236 48.651 20.37 92.254 50.333 130.17 87.66 37.245 37.4 67.017 81.556 87.73 130.103 21.405 50.236 32.382 104.301 32.259 158.908 0 54.875-10.752 108.597-31.692 159.496z" />
<glyph unicode="&#xe94b;" d="M544.44 447.956l148.499 148.517c8.985 8.992 8.985 23.513 0 32.461-4.289 4.317-10.122 6.744-16.203 6.744-6.083 0-11.916-2.427-16.204-6.744l-148.543-148.515-148.565 148.581c-4.288 4.31-10.116 6.733-16.193 6.733s-11.904-2.424-16.193-6.733c-8.983-8.992-8.983-23.513 0-32.441l148.499-148.515-148.499-148.581c-6.598-6.543-8.585-16.431-5.026-25.019 3.557-8.587 11.953-14.165 21.241-14.112 5.873 0 11.701 2.193 16.193 6.69l148.542 148.537 148.564-148.581c4.471-4.496 10.3-6.713 16.172-6.713 9.295-0.062 17.705 5.519 21.266 14.116s1.563 18.497-5.052 25.038l-148.499 148.536z" />
<glyph unicode="&#xe94c;" d="M889.109 606.803c-20.367 48.647-50.377 92.207-87.75 130.103-37.424 37.214-81.592 66.967-130.147 87.657-50.287 21.401-104.394 32.366-159.044 32.239-54.899 0-108.664-11.322-159.586-32.805-48.694-20.37-92.274-50.334-130.194-87.66-37.241-37.393-67.017-81.541-87.726-130.080-21.413-50.244-32.386-104.316-32.263-158.931 0-54.875 10.757-108.597 32.282-158.927 20.348-48.647 50.358-92.207 87.707-130.103 37.432-37.218 81.608-66.967 130.17-87.66 50.287-21.397 104.394-32.363 159.045-32.236 54.899 0 108.663 10.753 159.040 32.236 48.651 20.37 92.254 50.333 130.17 87.66 37.245 37.4 67.017 81.556 87.73 130.103 21.405 50.236 32.382 104.301 32.259 158.908 0 54.875-10.752 108.597-31.692 159.496z" />
<glyph unicode="&#xe94d;" d="M650.359 583.664c13.318 12.317 34.917 12.332 48.253 0.034 13.332-12.299 13.348-32.249 0.032-44.561l-227.106-210.047c-13.302-12.302-34.879-12.332-48.217-0.063l-114.066 104.905c-8.751 7.923-12.229 19.572-9.11 30.514 3.113 10.942 12.349 19.505 24.187 22.428 11.837 2.918 24.462-0.245 33.072-8.293l89.921-82.695 203.033 187.778z" />
<glyph unicode="&#xe94e;" glyph-name="edit" d="M189.395 152.615c-14.521 0.015-28.37 6.152-38.139 16.902-9.768 10.749-14.551 25.123-13.178 39.583l10.758 113.515c1.935 20.278 10.857 39.254 25.239 53.674l420.274 420.271c34.213 34.124 89.582 34.124 123.794 0l63.579-63.588c16.431-16.417 25.662-38.691 25.662-61.915 0-23.229-9.231-45.505-25.662-61.915l-420.254-420.271c-14.407-14.389-33.376-23.322-53.645-25.263l-113.499-10.761c-1.651-0.144-3.297-0.231-4.929-0.231zM656.257 766.964c-8.562 0.020-16.777-3.371-22.83-9.424l-420.274-420.334c-5.3-5.32-8.587-12.314-9.299-19.786l-10.337-109.123 109.088 10.337c7.472 0.717 14.469 4.015 19.778 9.326l420.275 420.328c6.063 6.054 9.469 14.264 9.469 22.832s-3.406 16.778-9.469 22.832l-63.574 63.588c-6.048 6.059-14.268 9.455-22.829 9.424zM128.93 113.231h707.062c20.31 0 30.469-9.84 30.469-29.529v-0.020c0-19.685-10.159-29.529-30.469-29.529h-707.062c-20.31 0-30.469 9.844-30.469 29.529v0.020c0 19.689 10.159 29.529 30.469 29.529zM835.741 54.154h-706.559c-17.096 0.418-30.721 13.519-30.721 29.538s13.625 29.121 30.721 29.538h706.559c17.092-0.418 30.721-13.519 30.721-29.538s-13.629-29.121-30.721-29.538zM129.182 111.3c-15.921-0.403-28.601-12.609-28.601-27.529 0-14.914 12.68-27.121 28.601-27.523h706.559c15.917 0.403 28.601 12.609 28.601 27.523 0 14.92-12.684 27.127-28.601 27.529h-706.559z" />
<glyph unicode="&#xe94f;" glyph-name="customer-info" d="M729.84 803.676l-39.683-6.997-7.009 39.751c-1.953 10.604-7.981 20.010-16.758 26.144-8.771 6.129-19.569 8.485-30.016 6.547-10.463-1.764-19.795-7.67-25.931-16.432-6.141-8.758-8.581-19.648-6.795-30.276l7.009-39.751-317.643-56.009-7.009 39.751c-2.582 14.228-12.489 26.003-25.943 30.84-13.588 4.937-28.692 2.273-39.772-7.013-11.001-9.135-16.272-23.595-13.784-37.845l7.009-39.751-39.641-6.99c-43.821-7.82-73.049-49.556-65.522-93.283l94.015-533.187c7.704-43.69 49.759-73.143 93.507-65.429l555.967 98.032c43.915 7.836 73.126 49.669 65.495 93.465l-93.983 533.005c-8.262 44.113-50.071 73.348-93.554 65.421l0.042 0.007zM479.915 630.673c66.984 11.576 130.583-32.649 142.466-98.999 11.527-66.412-33.118-129.679-99.941-141.649-66.883-11.606-130.563 32.561-142.437 98.862-11.616 66.397 33.029 129.665 99.912 141.786zM792.864 201.916l-472.531-83.32-6.729 38.159c-13.441 76.23 136.676 146.021 215.415 159.904s243.658-0.265 257.116-76.584l6.729-38.159z" />
<glyph unicode="&#xe950;" glyph-name="order-update" d="M503.183 618.276l277.581 84.865c4.938 1.51 8.619 5.653 9.536 10.734s-1.080 10.248-5.177 13.388l-144.475 110.698c-14.13 10.832-32.62 14.173-49.648 8.967l-144.241-44.099c-7.279-2.225-11.377-9.932-9.151-17.211l48.363-158.188c1.069-3.496 3.481-6.425 6.712-8.142 3.226-1.715 7.004-2.082 10.5-1.013zM146.51 509.23l277.581 84.865c7.279 2.225 11.378 9.932 9.151 17.215l-48.363 158.188c-2.225 7.279-9.933 11.376-17.212 9.151l-144.24-44.099c-17.029-5.206-30.499-18.314-36.158-35.201l-57.861-172.559c-1.639-4.893-0.407-10.295 3.194-13.994 3.604-3.699 8.971-5.076 13.907-3.567zM809.316 654.213l-659.116-201.512c-7.279-2.225-11.377-9.929-9.151-17.212l116.876-382.286c8.904-29.123 39.73-45.511 68.85-36.608l580.021 177.33c29.123 8.904 45.513 39.727 36.609 68.85l-116.876 382.286c-2.227 7.283-9.933 11.377-17.212 9.152zM306.962 269.995l79.095 24.182c9.417 2.879 19.658 0.517 26.863-6.2 7.201-6.719 10.274-16.769 8.060-26.363-2.217-9.598-9.385-17.286-18.802-20.166l-79.095-24.182c-9.417-2.879-19.659-0.513-26.864 6.204-7.204 6.714-10.277 16.765-8.060 26.363s9.386 17.283 18.803 20.162zM513.511 160.171l-158.187-48.363c-9.417-2.879-19.659-0.513-26.864 6.204-7.204 6.713-10.276 16.764-8.060 26.363s9.386 17.283 18.803 20.162l158.187 48.363c9.421 2.88 19.658 0.517 26.863-6.2s10.278-16.769 8.060-26.363c-2.217-9.598-9.381-17.285-18.802-20.166z" />
<glyph unicode="&#xe951;" d="M843.473 716.569c-1.95 18.142-11.789 34.282-27.059 44.27-15.167 9.945-33.976 12.471-51.162 6.87l-482.59-156.803-28.937 62.76-0.815 1.651c-16.674 30.454-52.58 44.806-85.372 34.151l-100.233-32.568c-13.895-4.515-21.499-19.551-16.956-33.532 4.544-13.985 19.534-21.68 33.429-17.166l100.233 32.568c8.397 2.728 17.569-0.782 22.123-8.367l185.602-402.483c3.566-6.548 8.071-12.278 13.212-17.24-28.167-25.031-40.513-65.477-28.076-103.753 16.719-51.456 71.92-79.761 123.021-63.158 51.106 16.605 79.114 71.991 62.408 123.407-5.848 17.998-16.434 33.152-29.852 44.579l243.041 78.969c-4.178-17.144-3.795-35.613 2.053-53.611 16.719-51.456 71.92-79.761 123.025-63.156 51.102 16.604 79.11 71.99 62.404 123.406-12.78 39.332-48.033 65.108-86.757 67.707 0.992 6.211 1.156 12.532 0.483 18.79l-33.224 312.711zM483.479 114.436c-23.346-7.585-48.533 5.345-56.165 28.835s5.144 48.755 28.49 56.341c23.347 7.586 48.533-5.345 56.165-28.835s-5.143-48.755-28.49-56.341zM884.193 244.636c-23.35-7.587-48.533 5.345-56.165 28.835s5.14 48.754 28.49 56.341c23.347 7.586 48.529-5.347 56.161-28.836s-5.139-48.754-28.486-56.339z" />
<glyph unicode="&#xe952;" d="M490.27 475.805c18.47-56.845 81.689-87.252 141.203-67.915s92.786 81.095 74.316 137.941" />
<glyph unicode="&#xe953;" d="M448.542 542.258l36.426 11.835 12.541-38.598-36.426-11.835-12.541 38.598z" />
<glyph unicode="&#xe954;" glyph-name="success" d="M513.593 894.831c-246.706 0-447.414-200.708-447.414-447.414 0-246.818 200.708-447.526 447.414-447.526s447.414 200.708 447.414 447.526c0 246.594-200.708 447.414-447.414 447.414zM453.459 192.858c-4.824-7.629-16.043-7.517-20.531 0.337-28.721 50.037-119.146 190.274-252.876 232.458l59.012 38.369c56.432 36.686 132.496 20.419 167.724-36.91 25.467-41.398 36.013-82.572 36.013-82.572s135.525 305.157 323.892 362.374c0 0-58.788-134.291 27.038-231.223-0.224 0-195.659-54.412-340.272-282.831v0z" />
<glyph unicode="&#xe955;" glyph-name="fail" d="M513.593 894.831c246.706 0 447.414-200.82 447.414-447.414 0-246.818-200.708-447.526-447.414-447.526s-447.414 200.708-447.414 447.526c0 246.706 200.708 447.414 447.414 447.414zM473.358 304.33c-23.911-13.988-38.641-39.842-38.641-67.826 0-27.979 14.73-53.834 38.641-67.822 23.914-13.991 53.374-13.991 77.284 0 23.911 13.988 38.641 39.843 38.641 67.822 0 27.984-14.73 53.838-38.641 67.826-23.91 13.992-53.37 13.992-77.284 0zM564.864 747.472h-105.777c-8.394 0-15.111-6.465-14.691-14.068l19.727-354.329c0-7.223 6.717-12.926 14.691-12.926h67.16c7.978 0 14.27 5.703 14.27 12.545l19.311 354.71c0.84 7.603-6.296 14.068-14.691 14.068z" />
<glyph unicode="&#xe956;" glyph-name="star" d="M1024 960v-1024h-1024v1024h1024zM575.84 867.386c-26.1 55.219-101.469 55.219-127.575 0l-87.425-184.579c-10.373-21.867-30.396-37.066-53.566-40.567l-195.075-29.522c-58.388-8.854-81.662-83.649-39.416-126.622l141.2-143.459c16.772-17.062 24.424-41.664 20.438-65.716l-33.333-202.727c-9.96-60.686 51.050-106.94 103.254-78.296l174.533 95.682c20.739 11.368 45.513 11.368 66.25 0l174.533-95.682c52.201-28.645 113.209 17.61 103.25 78.296l-33.333 202.727c-3.982 24.052 3.666 48.654 20.438 65.716l141.199 143.568c42.246 42.973 18.978 117.768-39.41 126.622l-195.081 29.522c-23.168 3.501-43.186 18.7-53.566 40.567z" />
</font>
</defs>
</svg>
