<?xml version="1.0" encoding="UTF-8"?>
<svg id="_图层_2" data-name="图层 2" xmlns="http://www.w3.org/2000/svg" xmlns:xlink="http://www.w3.org/1999/xlink" viewBox="0 0 135 50">
  <defs>
    <style>
      .cls-1 {
        fill: url(#_未命名的渐变_29);
      }

      .cls-2 {
        fill: #fefefe;
        fill-rule: evenodd;
      }
    </style>
    <linearGradient id="_未命名的渐变_29" data-name="未命名的渐变 29" x1="41.63" y1="69.81" x2="93.37" y2="-19.81" gradientUnits="userSpaceOnUse">
      <stop offset="0" stop-color="#768cb8"/>
      <stop offset=".2" stop-color="#617aad"/>
      <stop offset=".47" stop-color="#4c69a2"/>
      <stop offset=".74" stop-color="#405e9c"/>
      <stop offset="1" stop-color="#3c5b9a"/>
    </linearGradient>
  </defs>
  <g id="_图层_1-2" data-name="图层 1">
    <g id="icon-facebook">
      <rect class="cls-1" x="0" y="0" width="135" height="50" rx="10" ry="10"/>
      <path class="cls-2" d="m63.19,33.3c0-2.58,0-5.15,0-7.73,0-.43-.12-.57-.55-.55-.8.03-1.61,0-2.41.02-.33,0-.45-.08-.44-.43.02-1.61.01-3.22,0-4.82,0-.31.09-.41.4-.4.82.02,1.65-.02,2.47.02.48.02.57-.15.56-.59-.03-1.22-.03-2.45,0-3.67.03-1.49.43-2.89,1.32-4.11,1.13-1.54,2.73-2.24,4.58-2.33,1.9-.08,3.8-.04,5.7-.06.26,0,.34.09.34.35,0,1.63-.01,3.25,0,4.88,0,.29-.09.38-.38.37-.91-.01-1.83,0-2.74,0-1.22,0-1.94.63-2.02,1.83-.06.97-.02,1.94-.04,2.9,0,.34.2.32.42.32,1.39,0,2.78.01,4.17,0,.41,0,.54.09.5.52-.17,1.62-.32,3.23-.46,4.85-.03.37-.2.44-.53.43-1.1-.02-2.19-.01-3.29,0-.79,0-.71-.12-.71.69,0,5.04-.01,10.09.01,15.13,0,.53-.13.66-.66.66-1.88-.03-3.76-.04-5.65,0-.53.01-.62-.17-.61-.64.02-2.54,0-5.08,0-7.62Z"/>
    </g>
  </g>
</svg>