<?xml version="1.0" encoding="UTF-8"?>
<svg id="_图层_2" data-name="图层 2" xmlns="http://www.w3.org/2000/svg" xmlns:xlink="http://www.w3.org/1999/xlink" viewBox="0 0 135 50">
  <defs>
    <style>
      .cls-1 {
        fill: url(#_未命名的渐变_135);
      }

      .cls-2 {
        fill: #fefefe;
        fill-rule: evenodd;
      }
    </style>
    <linearGradient id="_未命名的渐变_135" data-name="未命名的渐变 135" x1="41.63" y1="69.81" x2="93.37" y2="-19.81" gradientUnits="userSpaceOnUse">
      <stop offset="0" stop-color="#7fcffe"/>
      <stop offset=".13" stop-color="#6bc7fe"/>
      <stop offset=".35" stop-color="#4ebcfe"/>
      <stop offset=".57" stop-color="#39b5fe"/>
      <stop offset=".79" stop-color="#2db0fe"/>
      <stop offset="1" stop-color="#29affe"/>
    </linearGradient>
  </defs>
  <g id="_图层_1-2" data-name="图层 1">
    <g id="icon-twitter">
      <rect class="cls-1" x="0" y="0" width="135" height="50" rx="10" ry="10"/>
      <path class="cls-2" d="m85.44,14.74c-1.28.55-2.67.94-4.11,1.1,1.48-.87,2.61-2.25,3.14-3.91-1.37.82-2.91,1.4-4.54,1.72-1.3-1.37-3.16-2.22-5.22-2.22-3.95,0-7.15,3.16-7.15,7.06,0,.55.06,1.09.18,1.6-5.95-.28-11.22-3.1-14.75-7.37-.61,1.04-.97,2.25-.97,3.55,0,2.45,1.27,4.61,3.19,5.88-1.18-.05-2.28-.36-3.25-.9v.09c0,.91.18,1.78.49,2.56.88,2.21,2.85,3.88,5.25,4.36-.6.16-1.22.25-1.88.25-.46,0-.91-.04-1.36-.13.92,2.81,3.56,4.85,6.69,4.89-2.44,1.89-5.53,3.03-8.88,3.03-.58,0-1.15-.03-1.71-.1,3.17,2,6.93,3.18,10.97,3.18,11.19,0,18.06-7.76,19.88-15.81.33-1.42.49-2.86.49-4.27,0-.3-.01-.6-.03-.91,1.4-.99,2.62-2.24,3.58-3.64h0Z"/>
    </g>
  </g>
</svg>